<svg width="22" height="23" viewBox="0 0 22 23" fill="none" xmlns="http://www.w3.org/2000/svg">
<g clip-path="url(#clip0_322_974)">
<path d="M20.4111 0.493164H1.19241C0.534307 0.493164 0 1.02641 0 1.68559V20.9046C0 21.5638 0.534307 22.0977 1.19241 22.0977H11.5392V13.7312H8.72394V10.4701H11.5392V8.06537C11.5392 5.27533 13.2428 3.75527 15.7322 3.75527C16.9257 3.75527 17.9491 3.84456 18.2476 3.88333V6.79966L16.5208 6.80037C15.1673 6.80037 14.9062 7.4439 14.9062 8.38767V10.4691H18.1355L17.7132 13.7298H14.9058V22.0967H20.4108C21.0696 22.0967 21.6042 21.562 21.6042 20.9046V1.68488C21.6039 1.02641 21.0699 0.493164 20.4111 0.493164Z" fill="#13223C"/>
</g>
<defs>
<clipPath id="clip0_322_974">
<rect width="21.6049" height="21.6049" fill="white" transform="translate(0 0.987305)"/>
</clipPath>
</defs>
</svg>
