<svg width="619" height="619" viewBox="0 0 619 619" fill="none" xmlns="http://www.w3.org/2000/svg">
<path d="M570.641 346.999V253.887C570.641 112.677 448.89 0 309.5 0C170.623 0 48.3594 112.268 48.3594 253.887V346.999C20.8042 352.618 0 377.029 0 406.219C0 435.768 21.3144 460.434 49.3761 465.651C54.5929 493.713 79.2586 515.027 108.809 515.027H132.988C139.666 515.027 145.078 509.614 145.078 502.938V309.5C145.078 302.824 139.666 297.41 132.988 297.41H108.809C95.2087 297.41 82.6498 301.933 72.5391 309.542V264.884C98.4899 260.173 119.439 240.519 125.432 213.877C143.558 133.301 222.69 72.5391 309.5 72.5391C396.34 72.5391 475.524 133.362 493.688 214.017C499.671 240.581 520.571 260.177 546.461 264.882V309.542C536.35 301.933 523.791 297.41 510.191 297.41H486.012C479.334 297.41 473.922 302.824 473.922 309.5V502.938C473.922 509.614 479.334 515.027 486.012 515.027H510.191C523.693 515.027 536.168 510.567 546.241 503.057C543.709 534.077 517.674 558.551 486.012 558.551H356.329C350.946 537.716 331.992 522.281 309.5 522.281C282.835 522.281 261.141 543.975 261.141 570.641C261.141 597.306 282.835 619 309.5 619C331.992 619 350.946 603.565 356.329 582.73H486.012C532.676 582.73 570.641 544.766 570.641 498.102V465.438C598.196 459.819 619 435.408 619 406.219C619 377.029 598.196 352.618 570.641 346.999ZM108.809 321.59H120.898V490.848H108.809C88.8096 490.848 72.5391 474.577 72.5391 454.578C72.5391 447.902 67.1264 442.488 60.4492 442.488C40.4502 442.488 24.1797 426.218 24.1797 406.219C24.1797 386.22 40.4502 369.949 60.4492 369.949C67.1264 369.949 72.5391 364.535 72.5391 357.859C72.5391 337.86 88.8096 321.59 108.809 321.59ZM517.276 208.705C496.691 117.293 407.366 48.3594 309.5 48.3594C211.662 48.3594 122.388 117.235 101.841 208.572C98.4017 223.86 87.2536 235.546 73.013 239.922C80.7529 121.609 185.887 24.1797 309.5 24.1797C433.111 24.1797 538.245 121.607 545.986 239.918C531.803 235.551 520.704 223.92 517.276 208.705ZM558.551 442.488C551.874 442.488 546.461 447.902 546.461 454.578C546.461 474.577 530.19 490.848 510.191 490.848H498.102V321.59H510.191C530.19 321.59 546.461 337.86 546.461 357.859C546.461 364.535 551.874 369.949 558.551 369.949C578.55 369.949 594.82 386.22 594.82 406.219C594.82 426.218 578.55 442.488 558.551 442.488Z" fill="#D9E8E2"/>
</svg>
