<svg width="26" height="26" viewBox="0 0 26 26" fill="none" xmlns="http://www.w3.org/2000/svg">
<g clip-path="url(#clip0_322_964)">
<path d="M17.6616 0.258789H8.26343C3.93872 0.258789 0.431641 3.76586 0.431641 8.09058V17.4887C0.431641 21.8134 3.93872 25.3205 8.26343 25.3205H17.6616C21.9863 25.3205 25.4934 21.8134 25.4934 17.4887V8.09058C25.4934 3.76586 21.9863 0.258789 17.6616 0.258789ZM23.1438 17.4887C23.1438 20.5118 20.6846 22.971 17.6616 22.971H8.26343C5.24036 22.971 2.78118 20.5118 2.78118 17.4887V8.09058C2.78118 5.06751 5.24036 2.60833 8.26343 2.60833H17.6616C20.6846 2.60833 23.1438 5.06751 23.1438 8.09058V17.4887Z" fill="#13223C"/>
<path d="M12.9627 6.52441C9.50261 6.52441 6.69727 9.32976 6.69727 12.7898C6.69727 16.2499 9.50261 19.0553 12.9627 19.0553C16.4228 19.0553 19.2281 16.2499 19.2281 12.7898C19.2281 9.32976 16.4228 6.52441 12.9627 6.52441ZM12.9627 16.7057C10.8043 16.7057 9.0468 14.9483 9.0468 12.7898C9.0468 10.6298 10.8043 8.87395 12.9627 8.87395C15.1211 8.87395 16.8786 10.6298 16.8786 12.7898C16.8786 14.9483 15.1211 16.7057 12.9627 16.7057Z" fill="#13223C"/>
<path d="M19.6982 6.88946C20.1592 6.88946 20.533 6.51568 20.533 6.05459C20.533 5.59351 20.1592 5.21973 19.6982 5.21973C19.2371 5.21973 18.8633 5.59351 18.8633 6.05459C18.8633 6.51568 19.2371 6.88946 19.6982 6.88946Z" fill="#13223C"/>
</g>
<defs>
<clipPath id="clip0_322_964">
<rect width="25.0617" height="25.0617" fill="white" transform="translate(0.431641 0.258789)"/>
</clipPath>
</defs>
</svg>
