<svg width="27" height="27" viewBox="0 0 27 27" fill="none" xmlns="http://www.w3.org/2000/svg">
<g clip-path="url(#clip0_322_979)">
<path d="M13.543 0.258789C6.38489 0.258789 0.580078 6.0636 0.580078 13.2218C0.580078 20.3799 6.38489 26.1847 13.543 26.1847C20.7012 26.1847 26.506 20.3799 26.506 13.2218C26.506 6.0636 20.7012 0.258789 13.543 0.258789ZM9.77615 19.8551H6.61908V10.357H9.77615V19.8551ZM8.19772 9.06006H8.17715C7.11773 9.06006 6.43256 8.33077 6.43256 7.41931C6.43256 6.48729 7.1387 5.77818 8.21868 5.77818C9.29867 5.77818 9.96327 6.48729 9.98384 7.41931C9.98384 8.33077 9.29867 9.06006 8.19772 9.06006ZM21.1599 19.8551H18.0032V14.7739C18.0032 13.4969 17.5461 12.626 16.4038 12.626C15.5317 12.626 15.0123 13.2134 14.784 13.7805C14.7006 13.9835 14.6802 14.2671 14.6802 14.551V19.8551H11.5233C11.5233 19.8551 11.5647 11.2481 11.5233 10.357H14.6802V11.7019C15.0997 11.0547 15.8504 10.1341 17.5253 10.1341C19.6024 10.1341 21.1599 11.4916 21.1599 14.4089V19.8551Z" fill="#13223C"/>
</g>
<defs>
<clipPath id="clip0_322_979">
<rect width="25.9259" height="25.9259" fill="white" transform="translate(0.580078 0.258789)"/>
</clipPath>
</defs>
</svg>
