<svg width="30" height="50" viewBox="0 0 30 50" fill="none" xmlns="http://www.w3.org/2000/svg">
<path d="M28.8895 23.049L6.63887 0.798774C6.12424 0.283738 5.43725 0 4.70474 0C3.97223 0 3.28524 0.283738 2.77061 0.798774L1.13201 2.43697C0.0657544 3.50444 0.0657544 5.23939 1.13201 6.30523L19.8164 24.9896L1.11127 43.6948C0.596644 44.2098 0.3125 44.8964 0.3125 45.6285C0.3125 46.3614 0.596644 47.048 1.11127 47.5634L2.74988 49.2012C3.26491 49.7163 3.9515 50 4.68401 50C5.41652 50 6.10351 49.7163 6.61814 49.2012L28.8895 26.9307C29.4054 26.414 29.6887 25.7242 29.6871 24.9909C29.6887 24.2547 29.4054 23.5653 28.8895 23.049Z" fill="#C4C4C4"/>
</svg>
