<svg width="50" height="50" viewBox="0 0 50 50" fill="none" xmlns="http://www.w3.org/2000/svg">
<path d="M11.1105 26.951L33.3611 49.2012C33.8758 49.7163 34.5627 50 35.2953 50C36.0278 50 36.7148 49.7163 37.2294 49.2012L38.868 47.563C39.9342 46.4956 39.9342 44.7606 38.868 43.6948L20.1836 25.0104L38.8887 6.30523C39.4034 5.7902 39.6875 5.10362 39.6875 4.37151C39.6875 3.63859 39.4034 2.95201 38.8887 2.43657L37.2501 0.798775C36.7351 0.283737 36.0485 0 35.316 0C34.5835 0 33.8965 0.283737 33.3819 0.798775L11.1105 23.0693C10.5946 23.586 10.3113 24.2758 10.3129 25.0091C10.3113 25.7453 10.5946 26.4347 11.1105 26.951Z" fill="#C4C4C4"/>
</svg>
