<svg width="27" height="27" viewBox="0 0 27 27" fill="none" xmlns="http://www.w3.org/2000/svg">
<g clip-path="url(#clip0_322_977)">
<path d="M13.2843 0.258789C6.1261 0.258789 0.321289 6.0636 0.321289 13.2218C0.321289 20.3799 6.1261 26.1847 13.2843 26.1847C20.4424 26.1847 26.2472 20.3799 26.2472 13.2218C26.2472 6.0636 20.4424 0.258789 13.2843 0.258789ZM19.203 10.3659C19.2087 10.4935 19.2115 10.6217 19.2115 10.7505C19.2115 14.6821 16.2188 19.2159 10.7459 19.2161H10.7461H10.7459C9.06559 19.2161 7.50199 18.7235 6.18524 17.8795C6.41805 17.907 6.65501 17.9207 6.89495 17.9207C8.28903 17.9207 9.57196 17.4452 10.5904 16.647C9.28792 16.6229 8.18974 15.7627 7.81075 14.5804C7.99214 14.6152 8.17866 14.6342 8.36993 14.6342C8.64151 14.6342 8.90458 14.5976 9.1546 14.5294C7.79315 14.2568 6.76756 13.0536 6.76756 11.6129C6.76756 11.5994 6.76756 11.5873 6.76796 11.5749C7.1689 11.7978 7.6274 11.9319 8.11556 11.9469C7.31665 11.4139 6.7915 10.5026 6.7915 9.47029C6.7915 8.92516 6.93886 8.41444 7.19441 7.97473C8.66169 9.7751 10.8545 10.9591 13.3274 11.0835C13.2763 10.8656 13.25 10.6385 13.25 10.4051C13.25 8.76257 14.5826 7.43 16.2257 7.43C17.0816 7.43 17.8546 7.79177 18.3976 8.37014C19.0754 8.23642 19.7119 7.98878 20.2869 7.64797C20.0644 8.34244 19.5929 8.92516 18.9785 9.29366C19.5804 9.22166 20.154 9.06204 20.6871 8.82507C20.2889 9.42183 19.7839 9.946 19.203 10.3659Z" fill="#13223C"/>
</g>
<defs>
<clipPath id="clip0_322_977">
<rect width="25.9259" height="25.9259" fill="white" transform="translate(0.321289 0.258789)"/>
</clipPath>
</defs>
</svg>
